<?xml version="1.0" encoding="utf-8"?>
<!-- Generator: Adobe Illustrator 23.0.0, SVG Export Plug-In . SVG Version: 6.00 Build 0)  -->
<svg version="1.1" id="Capa_1" xmlns="http://www.w3.org/2000/svg" x="0px"
     y="0px"
     viewBox="0 0 512 512" style="enable-background:new 0 0 512 512;" xml:space="preserve">
<style type="text/css">
	.st0{fill:#231F20;}
	.st1{fill:#FFFFFF;stroke:#FFFFFF;stroke-miterlimit:10;}
	.st2{fill:#231F20;stroke:#FFFFFF;stroke-miterlimit:10;}
</style>
    <path class="st0" d="M218.5,168c-68.6,0-124.4,56-124.4,124.8s55.8,124.8,124.4,124.8s124.4-56,124.4-124.8S287.1,168,218.5,168z
	 M218.5,387.6c-52.1,0-94.4-42.5-94.4-94.8s42.4-94.8,94.4-94.8s94.4,42.5,94.4,94.8S270.6,387.6,218.5,387.6z"/>
    <ellipse class="st0" cx="218.5" cy="292.8" rx="94.4" ry="94.8"/>
    <path class="st0" d="M218.5,237.8c-30.1,0-54.7,24.7-54.7,55s24.5,55,54.7,55c30.1,0,54.6-24.7,54.6-55
	C273.2,262.5,248.6,237.8,218.5,237.8z M218.5,317.8c-13.6,0-24.7-11.2-24.7-25s11.1-25,24.7-25c13.6,0,24.6,11.2,24.6,25
	S232.1,317.8,218.5,317.8z"/>
    <path class="st1" d="M491.4,21.5C477.6,7.6,459.2,0,439.7,0c-21.2,0-40.9,9.3-54.5,24.6C371.7,9.3,352,0,330.8,0
	c-19.4,0-37.7,7.6-51.4,21.4c-13.7,13.7-21.2,32-21.4,51.4v0.7H91.5c-50.3,0-91,40.7-91,91v256c0,50.3,40.7,91,91,91h255
	c50.3,0,91-40.7,91-91V175.4c4.3-3.1,8.6-6.4,13-9.8c40.9-32.4,61.8-63.5,62-92.6C512.6,53.6,505.1,35.3,491.4,21.5z M346.5,481.5
	h-255c-33.7,0-61-27.3-61-61v-256c0-33.7,27.3-61,61-61h173.6c9.3,20,27.5,40.8,54.5,62.1c28.9,22.8,57.4,37.9,58.6,38.5
	c2.2,1.2,4.6,1.7,7,1.7c2.4,0,4.8-0.6,7-1.8c0.5-0.3,6.4-3.4,15.2-8.8v225.4h0.1C407.5,454.2,380.1,481.5,346.5,481.5z M431.7,142
	c-18.5,14.7-37.2,26.2-47,31.9c-9.9-5.7-28.7-17.2-47.3-31.9c-32.3-25.6-50.1-50.1-49.9-68.9c0.2-23.8,19.4-43.1,42.8-43.1
	c18.1,0,34.3,11.5,40.3,28.7c2.1,6,7.8,10,14.1,10c6.4,0,12-4,14.1-10c6-17.1,22.3-28.7,40.3-28.7c11.5,0,22.3,4.5,30.5,12.7
	c8,8.1,12.5,18.8,12.4,30.2C481.9,91.8,464,116.3,431.7,142z"/>
    <path class="st1" d="M407.5,420.6c0,33.6-27.4,60.9-61,60.9h-255c-33.7,0-61-27.3-61-61v-256c0-33.7,27.3-61,61-61h173.6
	c9.3,20,27.5,40.8,54.5,62.1c28.9,22.8,57.4,37.9,58.6,38.5c2.2,1.2,4.6,1.7,7,1.7c2.4,0,4.8-0.6,7-1.8c0.5-0.3,6.4-3.4,15.2-8.8
	L407.5,420.6L407.5,420.6z"/>
    <path class="st2" d="M407.5,420.6c0,33.6-27.4,60.9-61,60.9h-255c-33.7,0-61-27.3-61-61v-256c0-33.7,27.3-61,61-61h173.6
	c9.3,20,27.5,40.8,54.5,62.1c28.9,22.8,57.4,37.9,58.6,38.5c2.2,1.2,4.6,1.7,7,1.7c2.4,0,4.8-0.6,7-1.8c0.5-0.3,6.4-3.4,15.2-8.8
	L407.5,420.6L407.5,420.6z"/>
    <path class="st2" d="M407.5,420.6c0,33.6-27.4,60.9-61,60.9h-255c-33.7,0-61-27.3-61-61v-256c0-33.7,27.3-61,61-61h173.6
	c9.3,20,27.5,40.8,54.5,62.1c28.9,22.8,57.4,37.9,58.6,38.5c2.2,1.2,4.6,1.7,7,1.7c2.4,0,4.8-0.6,7-1.8c0.5-0.3,6.4-3.4,15.2-8.8
	L407.5,420.6L407.5,420.6z"/>
    <path class="st2" d="M482,72.9c-0.1,18.9-18,43.4-50.3,69.1c-18.5,14.7-37.2,26.2-47,31.9c-9.9-5.7-28.7-17.2-47.3-31.9
	c-32.3-25.6-50.1-50.1-49.9-68.9c0.2-23.8,19.4-43.1,42.8-43.1c18.1,0,34.3,11.5,40.3,28.7c2.1,6,7.8,10,14.1,10c6.4,0,12-4,14.1-10
	c6-17.1,22.3-28.7,40.3-28.7c11.5,0,22.3,4.5,30.5,12.7C477.6,50.8,482.1,61.5,482,72.9z"/>
    <path class="st2" d="M482,72.9c-0.1,18.9-18,43.4-50.3,69.1c-18.5,14.7-37.2,26.2-47,31.9c-9.9-5.7-28.7-17.2-47.3-31.9
	c-32.3-25.6-50.1-50.1-49.9-68.9c0.2-23.8,19.4-43.1,42.8-43.1c18.1,0,34.3,11.5,40.3,28.7c2.1,6,7.8,10,14.1,10c6.4,0,12-4,14.1-10
	c6-17.1,22.3-28.7,40.3-28.7c11.5,0,22.3,4.5,30.5,12.7C477.7,50.8,482.1,61.5,482,72.9z"/>
    <path class="st2" d="M392.3,204.1c-2.2,1.2-4.6,1.8-7,1.8c-2.4,0-4.8-0.6-7-1.7c-1.2-0.6-29.7-15.8-58.6-38.5
	c-27-21.3-45.3-42.1-54.5-62.1H91.5c-33.7,0-61,27.3-61,61v256c0,33.7,27.3,61,61,61h255c33.6,0,61-27.3,61-60.9V195.3
	C398.7,200.7,392.8,203.9,392.3,204.1z M218.5,417.6c-68.6,0-124.4-56-124.4-124.8S149.9,168,218.5,168s124.4,56,124.4,124.8
	S287.1,417.6,218.5,417.6z"/>
    <ellipse class="st2" cx="218.5" cy="292.8" rx="124.4" ry="124.8"/>
    <ellipse class="st1" cx="218.5" cy="292.8" rx="124.4" ry="124.8"/>
    <path class="st2" d="M218.5,198c-52.1,0-94.4,42.5-94.4,94.8s42.4,94.8,94.4,94.8s94.4-42.5,94.4-94.8S270.6,198,218.5,198z
	 M218.5,347.8c-30.1,0-54.7-24.7-54.7-55s24.5-55,54.7-55c30.1,0,54.6,24.7,54.6,55C273.2,323.1,248.6,347.8,218.5,347.8z"/>
    <path class="st2" d="M243.2,292.8c0,13.8-11.1,25-24.6,25c-13.6,0-24.7-11.2-24.7-25s11.1-25,24.7-25
	C232.1,267.8,243.2,279,243.2,292.8z"/>
</svg>
